<?xml version="1.0" encoding="UTF-8" standalone="no"?>
<svg
   xmlns:dc="http://purl.org/dc/elements/1.1/"
   xmlns:cc="http://creativecommons.org/ns#"
   xmlns:rdf="http://www.w3.org/1999/02/22-rdf-syntax-ns#"
   xmlns:svg="http://www.w3.org/2000/svg"
   xmlns="http://www.w3.org/2000/svg"
   xmlns:sodipodi="http://sodipodi.sourceforge.net/DTD/sodipodi-0.dtd"
   xmlns:inkscape="http://www.inkscape.org/namespaces/inkscape"
   version="1.1"
   width="100"
   height="100"
   id="svg6584"
   inkscape:version="0.48.2 r9819"
   sodipodi:docname="noun_project_2436.svg">
  <sodipodi:namedview
     pagecolor="#ffffff"
     bordercolor="#666666"
     borderopacity="1"
     objecttolerance="10"
     gridtolerance="10"
     guidetolerance="10"
     inkscape:pageopacity="0"
     inkscape:pageshadow="2"
     inkscape:window-width="1334"
     inkscape:window-height="789"
     id="namedview7"
     showgrid="false"
     inkscape:zoom="2.36"
     inkscape:cx="-70.974576"
     inkscape:cy="50"
     inkscape:window-x="0"
     inkscape:window-y="0"
     inkscape:window-maximized="0"
     inkscape:current-layer="svg6584" />
  <defs
     id="defs6586" />
  <metadata
     id="metadata6589">
    <rdf:RDF>
      <cc:Work
         rdf:about="">
        <dc:format>image/svg+xml</dc:format>
        <dc:type
           rdf:resource="http://purl.org/dc/dcmitype/StillImage" />
        <dc:title></dc:title>
      </cc:Work>
    </rdf:RDF>
  </metadata>
  <rect
     style="fill:#e6e6e6;fill-opacity:1;stroke:none"
     id="rect3002"
     width="100"
     height="100"
     x="0.15254235"
     y="0.42372906"
     inkscape:export-filename="/Users/nicksuch/Dropbox/trolleytracker/trolleyTrackerIcon.png"
     inkscape:export-xdpi="450"
     inkscape:export-ydpi="450" />
  <g
     transform="matrix(0.70588209,0,0,0.70588209,35.655084,-677.05439)"
     id="layer1"
     style="fill:#165016"
     inkscape:export-filename="/Users/nicksuch/Dropbox/trolleytracker/trolleyTrackerIcon.png"
     inkscape:export-xdpi="450"
     inkscape:export-ydpi="450">
    <path
       d="M 35.416665,966.94534 L 35.416665,971.112 L 27.083332,971.112 C 24.999998,971.112 22.916665,973.19533 22.916665,975.27867 L 22.916665,1000.2787 L 22.916665,1021.112 L 22.916665,1025.2787 L 22.916665,1029.4453 L 27.083332,1029.4453 L 27.083332,1037.7787 L 35.416665,1037.7787 L 35.416665,1029.4453 L 64.583332,1029.4453 L 64.583332,1037.7787 L 72.916665,1037.7787 L 72.916665,1029.4453 L 77.083335,1029.4453 L 77.083335,1025.2787 L 77.083335,1021.112 L 77.083335,1000.2787 L 77.083335,975.27867 C 77.083335,973.19533 74.999995,971.112 72.916665,971.112 L 64.583332,971.112 L 64.583332,966.94534 z M 31.249998,979.44533 L 68.749999,979.44533 L 68.749999,991.94532 L 68.749999,1000.2787 L 31.249998,1000.2787 L 31.249998,991.94532 z M 35.416665,1012.7787 C 37.724998,1012.7787 39.583332,1014.637 39.583332,1016.9454 C 39.583332,1019.2537 37.724998,1021.112 35.416665,1021.112 C 33.108332,1021.112 31.249998,1019.2537 31.249998,1016.9454 C 31.249998,1014.637 33.108332,1012.7787 35.416665,1012.7787 z M 64.583332,1012.7787 C 66.891665,1012.7787 68.749999,1014.637 68.749999,1016.9454 C 68.749999,1019.2537 66.891665,1021.112 64.583332,1021.112 C 62.274999,1021.112 60.416665,1019.2537 60.416665,1016.9454 C 60.416665,1014.637 62.274999,1012.7787 64.583332,1012.7787 z"
       id="path8522-6-8"
       style="color:#000000;fill:#165016;fill-opacity:1;fill-rule:nonzero;stroke:none;stroke-width:2;marker:none;visibility:visible;display:inline;overflow:visible;enable-background:accumulate"
       inkscape:connector-curvature="0" />
  </g>
  <flowRoot
     xml:space="preserve"
     id="flowRoot2984"
     style="font-size:11.99999905px;font-style:normal;font-variant:normal;font-weight:bold;font-stretch:normal;text-align:start;line-height:125%;letter-spacing:0px;word-spacing:0px;writing-mode:lr-tb;text-anchor:start;fill:#000000;fill-opacity:1;stroke:none;font-family:Garamond;-inkscape-font-specification:Garamond Bold"
     transform="matrix(3.3139162,0,0,3.3139162,-20.870183,104.85336)"
     inkscape:export-filename="/Users/nicksuch/Dropbox/trolleytracker/trolleyTrackerIcon.png"
     inkscape:export-xdpi="450"
     inkscape:export-ydpi="450"><flowRegion
       id="flowRegion2986"><rect
         id="rect2988"
         width="80.084747"
         height="17.79661"
         x="8.8983049"
         y="-14.830508"
         style="font-size:11.99999905px;font-style:normal;font-variant:normal;font-weight:bold;font-stretch:normal;text-align:start;line-height:125%;writing-mode:lr-tb;text-anchor:start;font-family:Garamond;-inkscape-font-specification:Garamond Bold" /></flowRegion><flowPara
       id="flowPara2990">LEX</flowPara></flowRoot>  <flowRoot
     transform="matrix(6.5389533,0,0,6.5389533,-51.977651,77.572495)"
     style="font-size:11.99999905px;font-style:normal;font-variant:normal;font-weight:bold;font-stretch:normal;text-align:start;line-height:125%;letter-spacing:0px;word-spacing:0px;writing-mode:lr-tb;text-anchor:start;fill:#000000;fill-opacity:1;stroke:none;font-family:Garamond;-inkscape-font-specification:Garamond Bold"
     id="flowRoot2992"
     xml:space="preserve"
     inkscape:export-filename="/Users/nicksuch/Dropbox/trolleytracker/trolleyTrackerIcon.png"
     inkscape:export-xdpi="450"
     inkscape:export-ydpi="450"><flowRegion
       id="flowRegion2994"><rect
         y="-14.830508"
         x="8.8983049"
         height="17.79661"
         width="80.084747"
         id="rect2996"
         style="font-size:11.99999905px;font-style:normal;font-variant:normal;font-weight:bold;font-stretch:normal;text-align:start;line-height:125%;writing-mode:lr-tb;text-anchor:start;font-family:Garamond;-inkscape-font-specification:Garamond Bold" /></flowRegion><flowPara
       id="flowPara2998">I</flowPara></flowRoot></svg>
